<?xml version="1.0" encoding="UTF-8"?>
<svg xmlns="http://www.w3.org/2000/svg" viewBox="0 0 850 1000" role="img" aria-label="Oddaka Inksters artwork">
  <defs>
    <radialGradient id="gxGlow" cx="50%" cy="48%" r="60%">
      <stop offset="0%" stop-color="#c14b30" stop-opacity="0.001"/>
      <stop offset="55%" stop-color="#c14b30" stop-opacity="0.12"/>
      <stop offset="100%" stop-color="#c14b30" stop-opacity="0"/>
    </radialGradient>
    <radialGradient id="gxVig" cx="50%" cy="46%" r="75%">
      <stop offset="58%" stop-color="#000" stop-opacity="0"/>
      <stop offset="100%" stop-color="#040405" stop-opacity="0.92"/>
    </radialGradient>
    <linearGradient id="gxBg" x1="0.5" y1="0" x2="0.5" y2="1">
      <stop offset="0%" stop-color="#151518"/>
      <stop offset="45%" stop-color="#0d0d10"/>
      <stop offset="100%" stop-color="#08080a"/>
    </linearGradient>
    
    <linearGradient id="kxBody" x1="0" y1="0" x2="1" y2="0">
      <stop offset="0%" stop-color="#e6dfce"/>
      <stop offset="45%" stop-color="#d9d0bb"/>
      <stop offset="100%" stop-color="#ede7d6"/>
    </linearGradient>
  </defs>
  <rect width="850" height="1000" fill="url(#gxBg)"/>
  <g transform="translate(425 500)"><rect x="-850" y="-960" width="1700" height="2000" fill="url(#gxGlow)"/></g>
  <g transform="translate(425 460)">
    <g transform="translate(0 0)"><g transform="translate(-144.50000000000003, -140.00000000000003) scale(1.34)">
    <path d="M -460 -300 C -360 -326, -260 -274, -160 -300 C -60 -326, 40 -274, 140 -300 C 240 -326 340 -274 460 -300" stroke="#3f7a76" stroke-width="1.1" fill="none" opacity="0.22"/>
<path d="M -460 -192 C -360 -218, -260 -166, -160 -192 C -60 -218, 40 -166, 140 -192 C 240 -218 340 -166 460 -192" stroke="#3f7a76" stroke-width="1.1" fill="none" opacity="0.22"/>
<path d="M -460 -84 C -360 -110, -260 -58, -160 -84 C -60 -110, 40 -58, 140 -84 C 240 -110 340 -58 460 -84" stroke="#3f7a76" stroke-width="1.1" fill="none" opacity="0.22"/>
<path d="M -460 24 C -360 -2, -260 50, -160 24 C -60 -2, 40 50, 140 24 C 240 -2 340 50 460 24" stroke="#3f7a76" stroke-width="1.1" fill="none" opacity="0.22"/>
<path d="M -460 132 C -360 106, -260 158, -160 132 C -60 106, 40 158, 140 132 C 240 106 340 158 460 132" stroke="#3f7a76" stroke-width="1.1" fill="none" opacity="0.22"/>
<path d="M -460 240 C -360 214, -260 266, -160 240 C -60 214, 40 266, 140 240 C 240 214 340 266 460 240" stroke="#3f7a76" stroke-width="1.1" fill="none" opacity="0.22"/>
<circle cx="-330" cy="-200" r="9" stroke="#3f7a76" stroke-width="1" fill="none" opacity="0.35"/>
<circle cx="-300" cy="-176" r="5" stroke="#3f7a76" stroke-width="1" fill="none" opacity="0.3"/>
<circle cx="330" cy="250" r="12" stroke="#3f7a76" stroke-width="1" fill="none" opacity="0.3"/>
<circle cx="362" cy="282" r="6" stroke="#3f7a76" stroke-width="1" fill="none" opacity="0.25"/>
<path d="M 150 0 C 166 -120, 30 -190, -170 -40 C -210 -4, -232 0, -234 12 C -236 24, -218 26, -185 40 C 20 190, 170 115.38461538461539, 150 0 Z" fill="url(#kxBody)" stroke="#8d846c" stroke-width="1.8"/>
<path d="M -200 -14 C -260 -90, -300 -92, -330 -34 C -296 -20, -266 8, -238 22 C -224 6, -212 -2, -200 -14 Z" fill="#d7cdb4" stroke="#8d846c" stroke-width="1.5"/>
<path d="M -200 22 C -260 96, -302 96, -330 40 C -294 26, -264 -4, -234 -18 C -222 -2, -210 8, -200 22 Z" fill="#cbc0a4" stroke="#8d846c" stroke-width="1.5"/>
<path d="M 30 -120 C 60 -150, 96 -140, 108 -108 C 84 -104, 52 -104, 30 -120 Z" fill="#c9bfa4" stroke="#8d846c" stroke-width="1.4"/>
<ellipse cx="60" cy="-58" rx="40" ry="30" fill="#c14b30" opacity="0.88" transform="rotate(-14)"/>
<ellipse cx="-30" cy="-30" rx="34" ry="26" fill="#c14b30" opacity="0.92"/>
<ellipse cx="-110" cy="20" rx="40" ry="30" fill="#c14b30" opacity="0.85" transform="rotate(10)"/>
<circle cx="144" cy="-10" r="42" fill="#e8e1cf" stroke="#8d846c" stroke-width="1.6"/>
<path d="M 180 -6 C 196 10, 190 30, 170 34" stroke="#6d6757" stroke-width="1.2" fill="none"/>
<circle cx="116" cy="-16" r="3" fill="#141414"/>
<circle cx="144" cy="26" r="4" fill="#141414"/>
<path d="M -52 -30 A 11 9 0 0 1 -32 -30" stroke="#a89e83" stroke-width="0.9" fill="none" opacity="0.6"/>
<path d="M -78 -30 A 11 9 0 0 1 -58 -30" stroke="#a89e83" stroke-width="0.9" fill="none" opacity="0.6"/>
<path d="M -104 -30 A 11 9 0 0 1 -84 -30" stroke="#a89e83" stroke-width="0.9" fill="none" opacity="0.6"/>
<path d="M -130 -30 A 11 9 0 0 1 -110 -30" stroke="#a89e83" stroke-width="0.9" fill="none" opacity="0.6"/>
<path d="M -156 -30 A 11 9 0 0 1 -136 -30" stroke="#a89e83" stroke-width="0.9" fill="none" opacity="0.6"/>
<path d="M -182 -30 A 11 9 0 0 1 -162 -30" stroke="#a89e83" stroke-width="0.9" fill="none" opacity="0.6"/>
<path d="M -208 -30 A 11 9 0 0 1 -188 -30" stroke="#a89e83" stroke-width="0.9" fill="none" opacity="0.6"/>
<path d="M -234 -30 A 11 9 0 0 1 -214 -30" stroke="#a89e83" stroke-width="0.9" fill="none" opacity="0.6"/>
<path d="M -44 -8 A 11 9 0 0 1 -24 -8" stroke="#a89e83" stroke-width="0.9" fill="none" opacity="0.6"/>
<path d="M -70 -8 A 11 9 0 0 1 -50 -8" stroke="#a89e83" stroke-width="0.9" fill="none" opacity="0.6"/>
<path d="M -96 -8 A 11 9 0 0 1 -76 -8" stroke="#a89e83" stroke-width="0.9" fill="none" opacity="0.6"/>
<path d="M -122 -8 A 11 9 0 0 1 -102 -8" stroke="#a89e83" stroke-width="0.9" fill="none" opacity="0.6"/>
<path d="M -148 -8 A 11 9 0 0 1 -128 -8" stroke="#a89e83" stroke-width="0.9" fill="none" opacity="0.6"/>
<path d="M -174 -8 A 11 9 0 0 1 -154 -8" stroke="#a89e83" stroke-width="0.9" fill="none" opacity="0.6"/>
<path d="M -200 -8 A 11 9 0 0 1 -180 -8" stroke="#a89e83" stroke-width="0.9" fill="none" opacity="0.6"/>
<path d="M -226 -8 A 11 9 0 0 1 -206 -8" stroke="#a89e83" stroke-width="0.9" fill="none" opacity="0.6"/>
<path d="M -36 14 A 11 9 0 0 1 -16 14" stroke="#a89e83" stroke-width="0.9" fill="none" opacity="0.6"/>
<path d="M -62 14 A 11 9 0 0 1 -42 14" stroke="#a89e83" stroke-width="0.9" fill="none" opacity="0.6"/>
<path d="M -88 14 A 11 9 0 0 1 -68 14" stroke="#a89e83" stroke-width="0.9" fill="none" opacity="0.6"/>
<path d="M -114 14 A 11 9 0 0 1 -94 14" stroke="#a89e83" stroke-width="0.9" fill="none" opacity="0.6"/>
<path d="M -140 14 A 11 9 0 0 1 -120 14" stroke="#a89e83" stroke-width="0.9" fill="none" opacity="0.6"/>
<path d="M -166 14 A 11 9 0 0 1 -146 14" stroke="#a89e83" stroke-width="0.9" fill="none" opacity="0.6"/>
<path d="M -192 14 A 11 9 0 0 1 -172 14" stroke="#a89e83" stroke-width="0.9" fill="none" opacity="0.6"/>
<path d="M -218 14 A 11 9 0 0 1 -198 14" stroke="#a89e83" stroke-width="0.9" fill="none" opacity="0.6"/>
<path d="M -28 36 A 11 9 0 0 1 -8 36" stroke="#a89e83" stroke-width="0.9" fill="none" opacity="0.6"/>
<path d="M -54 36 A 11 9 0 0 1 -34 36" stroke="#a89e83" stroke-width="0.9" fill="none" opacity="0.6"/>
<path d="M -80 36 A 11 9 0 0 1 -60 36" stroke="#a89e83" stroke-width="0.9" fill="none" opacity="0.6"/>
<path d="M -106 36 A 11 9 0 0 1 -86 36" stroke="#a89e83" stroke-width="0.9" fill="none" opacity="0.6"/>
<path d="M -132 36 A 11 9 0 0 1 -112 36" stroke="#a89e83" stroke-width="0.9" fill="none" opacity="0.6"/>
<path d="M -158 36 A 11 9 0 0 1 -138 36" stroke="#a89e83" stroke-width="0.9" fill="none" opacity="0.6"/>
<path d="M -184 36 A 11 9 0 0 1 -164 36" stroke="#a89e83" stroke-width="0.9" fill="none" opacity="0.6"/>
<path d="M -210 36 A 11 9 0 0 1 -190 36" stroke="#a89e83" stroke-width="0.9" fill="none" opacity="0.6"/>
<path d="M -20 58 A 11 9 0 0 1 0 58" stroke="#a89e83" stroke-width="0.9" fill="none" opacity="0.6"/>
<path d="M -46 58 A 11 9 0 0 1 -26 58" stroke="#a89e83" stroke-width="0.9" fill="none" opacity="0.6"/>
<path d="M -72 58 A 11 9 0 0 1 -52 58" stroke="#a89e83" stroke-width="0.9" fill="none" opacity="0.6"/>
<path d="M -98 58 A 11 9 0 0 1 -78 58" stroke="#a89e83" stroke-width="0.9" fill="none" opacity="0.6"/>
<path d="M -124 58 A 11 9 0 0 1 -104 58" stroke="#a89e83" stroke-width="0.9" fill="none" opacity="0.6"/>
<path d="M -150 58 A 11 9 0 0 1 -130 58" stroke="#a89e83" stroke-width="0.9" fill="none" opacity="0.6"/>
<path d="M -176 58 A 11 9 0 0 1 -156 58" stroke="#a89e83" stroke-width="0.9" fill="none" opacity="0.6"/>
<path d="M -202 58 A 11 9 0 0 1 -182 58" stroke="#a89e83" stroke-width="0.9" fill="none" opacity="0.6"/>
<path d="M -12 80 A 11 9 0 0 1 8 80" stroke="#a89e83" stroke-width="0.9" fill="none" opacity="0.6"/>
<path d="M -38 80 A 11 9 0 0 1 -18 80" stroke="#a89e83" stroke-width="0.9" fill="none" opacity="0.6"/>
<path d="M -64 80 A 11 9 0 0 1 -44 80" stroke="#a89e83" stroke-width="0.9" fill="none" opacity="0.6"/>
<path d="M -90 80 A 11 9 0 0 1 -70 80" stroke="#a89e83" stroke-width="0.9" fill="none" opacity="0.6"/>
<path d="M -116 80 A 11 9 0 0 1 -96 80" stroke="#a89e83" stroke-width="0.9" fill="none" opacity="0.6"/>
<path d="M -142 80 A 11 9 0 0 1 -122 80" stroke="#a89e83" stroke-width="0.9" fill="none" opacity="0.6"/>
<path d="M -168 80 A 11 9 0 0 1 -148 80" stroke="#a89e83" stroke-width="0.9" fill="none" opacity="0.6"/>
<path d="M -194 80 A 11 9 0 0 1 -174 80" stroke="#a89e83" stroke-width="0.9" fill="none" opacity="0.6"/>
    </g></g></g>
  <rect width="850" height="1000" fill="url(#gxVig)"/>
  <g opacity="0.9"><circle cx="718.4" cy="534.8" r="0.58" fill="#fff" opacity="0.023"/>
<circle cx="394.1" cy="804.4" r="0.46" fill="#fff" opacity="0.042"/>
<circle cx="665.6" cy="755.4" r="0.60" fill="#fff" opacity="0.024"/>
<circle cx="489.3" cy="549.0" r="0.76" fill="#fff" opacity="0.024"/>
<circle cx="703.9" cy="831.7" r="0.54" fill="#fff" opacity="0.030"/>
<circle cx="484.8" cy="229.4" r="0.38" fill="#fff" opacity="0.059"/>
<circle cx="745.1" cy="153.7" r="1.14" fill="#fff" opacity="0.025"/>
<circle cx="276.1" cy="286.1" r="0.99" fill="#fff" opacity="0.054"/>
<circle cx="235.6" cy="394.7" r="1.29" fill="#fff" opacity="0.052"/>
<circle cx="352.6" cy="514.0" r="0.33" fill="#fff" opacity="0.052"/>
<circle cx="117.7" cy="480.2" r="0.96" fill="#fff" opacity="0.063"/>
<circle cx="496.0" cy="350.0" r="0.54" fill="#fff" opacity="0.065"/>
<circle cx="512.7" cy="571.6" r="0.49" fill="#fff" opacity="0.053"/>
<circle cx="436.2" cy="10.3" r="0.60" fill="#fff" opacity="0.029"/>
<circle cx="36.4" cy="901.4" r="0.35" fill="#fff" opacity="0.027"/>
<circle cx="832.1" cy="135.1" r="0.40" fill="#fff" opacity="0.033"/>
<circle cx="568.2" cy="516.2" r="0.99" fill="#fff" opacity="0.033"/>
<circle cx="599.5" cy="325.9" r="0.55" fill="#fff" opacity="0.032"/>
<circle cx="94.5" cy="341.0" r="0.74" fill="#fff" opacity="0.049"/>
<circle cx="596.9" cy="666.4" r="0.98" fill="#fff" opacity="0.066"/>
<circle cx="392.5" cy="201.7" r="1.34" fill="#fff" opacity="0.025"/>
<circle cx="807.7" cy="931.4" r="0.37" fill="#fff" opacity="0.025"/>
<circle cx="116.9" cy="262.8" r="1.02" fill="#fff" opacity="0.037"/>
<circle cx="733.9" cy="404.7" r="1.09" fill="#fff" opacity="0.046"/>
<circle cx="313.3" cy="417.1" r="0.43" fill="#fff" opacity="0.031"/>
<circle cx="789.9" cy="383.1" r="1.08" fill="#fff" opacity="0.066"/>
<circle cx="169.6" cy="567.1" r="0.34" fill="#fff" opacity="0.053"/>
<circle cx="477.8" cy="683.8" r="0.76" fill="#fff" opacity="0.035"/>
<circle cx="816.3" cy="698.3" r="1.33" fill="#fff" opacity="0.055"/>
<circle cx="210.6" cy="915.4" r="1.25" fill="#fff" opacity="0.066"/>
<circle cx="831.9" cy="108.3" r="0.86" fill="#fff" opacity="0.027"/>
<circle cx="140.6" cy="294.5" r="0.58" fill="#fff" opacity="0.036"/>
<circle cx="320.4" cy="638.2" r="0.91" fill="#fff" opacity="0.052"/>
<circle cx="293.5" cy="65.0" r="0.99" fill="#fff" opacity="0.033"/>
<circle cx="241.2" cy="703.7" r="0.94" fill="#fff" opacity="0.054"/>
<circle cx="329.6" cy="373.4" r="0.92" fill="#fff" opacity="0.022"/>
<circle cx="760.2" cy="947.7" r="1.19" fill="#fff" opacity="0.065"/>
<circle cx="327.7" cy="880.8" r="0.49" fill="#fff" opacity="0.064"/>
<circle cx="776.1" cy="170.0" r="1.30" fill="#fff" opacity="0.066"/>
<circle cx="548.8" cy="469.9" r="0.99" fill="#fff" opacity="0.031"/>
<circle cx="771.8" cy="225.1" r="0.96" fill="#fff" opacity="0.053"/>
<circle cx="172.5" cy="102.9" r="1.37" fill="#fff" opacity="0.053"/>
<circle cx="464.2" cy="80.5" r="1.08" fill="#fff" opacity="0.054"/>
<circle cx="195.7" cy="795.8" r="0.36" fill="#fff" opacity="0.064"/>
<circle cx="440.7" cy="329.2" r="0.34" fill="#fff" opacity="0.059"/>
<circle cx="217.9" cy="576.1" r="0.63" fill="#fff" opacity="0.049"/>
<circle cx="745.6" cy="147.0" r="1.33" fill="#fff" opacity="0.021"/>
<circle cx="835.5" cy="543.9" r="1.15" fill="#fff" opacity="0.053"/>
<circle cx="540.9" cy="375.9" r="1.05" fill="#fff" opacity="0.044"/>
<circle cx="126.2" cy="976.4" r="0.79" fill="#fff" opacity="0.057"/>
<circle cx="110.1" cy="4.1" r="0.45" fill="#fff" opacity="0.043"/>
<circle cx="561.8" cy="796.6" r="1.26" fill="#fff" opacity="0.031"/>
<circle cx="338.4" cy="859.6" r="0.52" fill="#fff" opacity="0.031"/>
<circle cx="236.1" cy="233.8" r="0.88" fill="#fff" opacity="0.034"/>
<circle cx="276.0" cy="676.4" r="0.56" fill="#fff" opacity="0.059"/>
<circle cx="128.5" cy="205.2" r="1.33" fill="#fff" opacity="0.062"/>
<circle cx="586.0" cy="860.3" r="0.70" fill="#fff" opacity="0.069"/>
<circle cx="598.3" cy="511.2" r="0.95" fill="#fff" opacity="0.032"/>
<circle cx="122.1" cy="779.8" r="0.88" fill="#fff" opacity="0.035"/>
<circle cx="747.3" cy="911.3" r="1.20" fill="#fff" opacity="0.030"/>
<circle cx="228.6" cy="686.1" r="0.60" fill="#fff" opacity="0.066"/>
<circle cx="276.4" cy="440.1" r="1.15" fill="#fff" opacity="0.055"/>
<circle cx="195.1" cy="645.1" r="0.94" fill="#fff" opacity="0.044"/>
<circle cx="825.1" cy="229.1" r="0.87" fill="#fff" opacity="0.024"/>
<circle cx="485.3" cy="516.1" r="1.14" fill="#fff" opacity="0.025"/>
<circle cx="504.5" cy="378.8" r="0.85" fill="#fff" opacity="0.059"/>
<circle cx="304.2" cy="318.7" r="0.81" fill="#fff" opacity="0.064"/>
<circle cx="527.8" cy="134.1" r="0.54" fill="#fff" opacity="0.047"/>
<circle cx="670.6" cy="787.8" r="1.02" fill="#fff" opacity="0.044"/>
<circle cx="402.1" cy="149.0" r="0.37" fill="#fff" opacity="0.058"/>
<circle cx="712.2" cy="83.2" r="0.31" fill="#fff" opacity="0.065"/>
<circle cx="312.1" cy="549.2" r="0.63" fill="#fff" opacity="0.046"/>
<circle cx="743.3" cy="525.7" r="0.78" fill="#fff" opacity="0.034"/>
<circle cx="492.5" cy="352.7" r="0.45" fill="#fff" opacity="0.037"/>
<circle cx="382.0" cy="243.5" r="0.71" fill="#fff" opacity="0.059"/>
<circle cx="226.1" cy="426.5" r="0.41" fill="#fff" opacity="0.042"/>
<circle cx="141.3" cy="638.2" r="0.31" fill="#fff" opacity="0.029"/>
<circle cx="23.4" cy="147.3" r="0.91" fill="#fff" opacity="0.041"/>
<circle cx="89.7" cy="462.4" r="1.34" fill="#fff" opacity="0.023"/>
<circle cx="168.4" cy="373.1" r="0.45" fill="#fff" opacity="0.059"/>
<circle cx="211.6" cy="765.6" r="1.11" fill="#fff" opacity="0.037"/>
<circle cx="478.5" cy="864.3" r="1.35" fill="#fff" opacity="0.063"/>
<circle cx="494.4" cy="733.9" r="0.64" fill="#fff" opacity="0.025"/>
<circle cx="227.3" cy="322.7" r="1.04" fill="#fff" opacity="0.033"/>
<circle cx="560.5" cy="845.7" r="0.42" fill="#fff" opacity="0.024"/>
<circle cx="334.5" cy="216.6" r="1.26" fill="#fff" opacity="0.042"/>
<circle cx="791.1" cy="868.6" r="1.03" fill="#fff" opacity="0.056"/>
<circle cx="759.3" cy="199.7" r="0.93" fill="#fff" opacity="0.029"/>
<circle cx="301.8" cy="175.4" r="0.76" fill="#fff" opacity="0.054"/>
<circle cx="611.4" cy="318.5" r="0.92" fill="#fff" opacity="0.031"/>
<circle cx="482.9" cy="787.1" r="1.22" fill="#fff" opacity="0.051"/>
<circle cx="815.0" cy="861.1" r="0.31" fill="#fff" opacity="0.054"/>
<circle cx="172.6" cy="387.8" r="0.70" fill="#fff" opacity="0.061"/>
<circle cx="357.0" cy="851.7" r="0.98" fill="#fff" opacity="0.041"/>
<circle cx="311.4" cy="959.8" r="0.68" fill="#fff" opacity="0.037"/>
<circle cx="216.4" cy="798.2" r="0.42" fill="#fff" opacity="0.049"/>
<circle cx="781.0" cy="561.1" r="0.82" fill="#fff" opacity="0.055"/>
<circle cx="569.4" cy="761.6" r="1.37" fill="#fff" opacity="0.052"/>
<circle cx="22.1" cy="520.8" r="1.29" fill="#fff" opacity="0.027"/>
<circle cx="845.1" cy="36.7" r="1.34" fill="#fff" opacity="0.045"/>
<circle cx="322.7" cy="578.3" r="0.93" fill="#fff" opacity="0.050"/>
<circle cx="71.5" cy="591.2" r="0.92" fill="#fff" opacity="0.053"/>
<circle cx="775.8" cy="400.7" r="1.16" fill="#fff" opacity="0.039"/>
<circle cx="781.2" cy="513.1" r="0.52" fill="#fff" opacity="0.049"/>
<circle cx="32.3" cy="336.6" r="1.28" fill="#fff" opacity="0.060"/>
<circle cx="49.5" cy="857.5" r="0.76" fill="#fff" opacity="0.020"/>
<circle cx="177.4" cy="308.9" r="1.33" fill="#fff" opacity="0.022"/>
<circle cx="255.5" cy="348.0" r="1.13" fill="#fff" opacity="0.046"/>
<circle cx="550.7" cy="522.2" r="1.12" fill="#fff" opacity="0.056"/>
<circle cx="521.9" cy="806.4" r="1.17" fill="#fff" opacity="0.021"/>
<circle cx="667.2" cy="775.9" r="1.28" fill="#fff" opacity="0.043"/>
<circle cx="789.2" cy="626.8" r="0.43" fill="#fff" opacity="0.069"/>
<circle cx="479.0" cy="16.3" r="0.86" fill="#fff" opacity="0.055"/>
<circle cx="142.5" cy="8.3" r="1.15" fill="#fff" opacity="0.043"/>
<circle cx="220.0" cy="409.2" r="0.37" fill="#fff" opacity="0.044"/>
<circle cx="343.2" cy="624.9" r="0.84" fill="#fff" opacity="0.055"/>
<circle cx="698.3" cy="291.6" r="1.14" fill="#fff" opacity="0.062"/>
<circle cx="519.0" cy="456.7" r="1.12" fill="#fff" opacity="0.047"/>
<circle cx="22.4" cy="876.9" r="0.62" fill="#fff" opacity="0.030"/>
<circle cx="517.7" cy="226.5" r="0.62" fill="#fff" opacity="0.064"/>
<circle cx="436.6" cy="397.0" r="0.37" fill="#fff" opacity="0.054"/>
<circle cx="345.4" cy="442.9" r="1.17" fill="#fff" opacity="0.024"/>
<circle cx="703.9" cy="675.1" r="0.70" fill="#fff" opacity="0.060"/>
<circle cx="648.2" cy="879.5" r="0.34" fill="#fff" opacity="0.054"/>
<circle cx="835.8" cy="215.0" r="1.08" fill="#fff" opacity="0.047"/>
<circle cx="406.5" cy="359.8" r="0.81" fill="#fff" opacity="0.069"/>
<circle cx="209.1" cy="76.8" r="0.32" fill="#fff" opacity="0.028"/>
<circle cx="30.1" cy="579.3" r="0.78" fill="#fff" opacity="0.039"/>
<circle cx="35.5" cy="603.8" r="0.84" fill="#fff" opacity="0.044"/>
<circle cx="511.5" cy="950.8" r="1.30" fill="#fff" opacity="0.044"/>
<circle cx="795.6" cy="264.0" r="0.42" fill="#fff" opacity="0.035"/>
<circle cx="264.6" cy="25.5" r="1.40" fill="#fff" opacity="0.062"/>
<circle cx="418.8" cy="111.4" r="0.74" fill="#fff" opacity="0.065"/>
<circle cx="615.6" cy="229.2" r="1.05" fill="#fff" opacity="0.035"/>
<circle cx="634.6" cy="204.9" r="0.97" fill="#fff" opacity="0.063"/>
<circle cx="741.3" cy="839.2" r="0.77" fill="#fff" opacity="0.044"/>
<circle cx="677.5" cy="999.6" r="1.27" fill="#fff" opacity="0.037"/>
<circle cx="681.8" cy="700.0" r="1.09" fill="#fff" opacity="0.025"/>
<circle cx="47.9" cy="386.5" r="0.96" fill="#fff" opacity="0.022"/>
<circle cx="459.8" cy="917.9" r="0.60" fill="#fff" opacity="0.029"/>
<circle cx="556.1" cy="618.0" r="0.46" fill="#fff" opacity="0.055"/>
<circle cx="102.9" cy="281.4" r="1.40" fill="#fff" opacity="0.065"/>
<circle cx="763.5" cy="393.6" r="1.02" fill="#fff" opacity="0.026"/>
<circle cx="140.3" cy="243.5" r="0.52" fill="#fff" opacity="0.029"/>
<circle cx="519.3" cy="855.7" r="1.31" fill="#fff" opacity="0.038"/>
<circle cx="285.2" cy="445.7" r="0.46" fill="#fff" opacity="0.034"/>
<circle cx="250.3" cy="805.1" r="0.92" fill="#fff" opacity="0.026"/>
<circle cx="406.4" cy="231.3" r="1.36" fill="#fff" opacity="0.066"/>
<circle cx="397.7" cy="285.3" r="0.95" fill="#fff" opacity="0.053"/>
<circle cx="431.8" cy="133.8" r="1.14" fill="#fff" opacity="0.066"/></g>
</svg>